<mxfile host="app.diagrams.net" agent="Mozilla/5.0 (Windows NT 10.0; Win64; x64) AppleWebKit/537.36 (KHTML, like Gecko) Chrome/136.0.0.0 Safari/537.36 Edg/136.0.0.0" version="27.0.5" pages="2">
  <diagram name="1 oldal" id="ePNQGzg98f3rhtgzejXV">
    <mxGraphModel dx="864" dy="482" grid="1" gridSize="10" guides="1" tooltips="1" connect="1" arrows="1" fold="1" page="1" pageScale="1" pageWidth="827" pageHeight="1169" math="0" shadow="0">
      <root>
        <mxCell id="0" />
        <mxCell id="1" parent="0" />
        <mxCell id="Z3Fsw5AAsz8I-hQZ8LvQ-1" value="Menetrend&lt;div&gt;(kezdőoldal)&lt;/div&gt;" style="rounded=0;whiteSpace=wrap;html=1;" vertex="1" parent="1">
          <mxGeometry x="380" y="80" width="120" height="60" as="geometry" />
        </mxCell>
        <mxCell id="Z3Fsw5AAsz8I-hQZ8LvQ-2" value="Bejelentkezés/&lt;br&gt;Regisztráció" style="rounded=0;whiteSpace=wrap;html=1;" vertex="1" parent="1">
          <mxGeometry x="330" y="200" width="120" height="60" as="geometry" />
        </mxCell>
        <mxCell id="Z3Fsw5AAsz8I-hQZ8LvQ-3" value="Admin felület" style="rounded=0;whiteSpace=wrap;html=1;" vertex="1" parent="1">
          <mxGeometry x="150" y="200" width="120" height="60" as="geometry" />
        </mxCell>
        <mxCell id="Z3Fsw5AAsz8I-hQZ8LvQ-4" value="Állomások&lt;div&gt;menetrendjei&lt;/div&gt;" style="rounded=0;whiteSpace=wrap;html=1;" vertex="1" parent="1">
          <mxGeometry x="480" y="200" width="120" height="60" as="geometry" />
        </mxCell>
        <mxCell id="Z3Fsw5AAsz8I-hQZ8LvQ-5" value="Profil" style="rounded=0;whiteSpace=wrap;html=1;" vertex="1" parent="1">
          <mxGeometry x="630" y="200" width="120" height="60" as="geometry" />
        </mxCell>
        <mxCell id="Z3Fsw5AAsz8I-hQZ8LvQ-7" value="Jegyek megtekintése" style="ellipse;whiteSpace=wrap;html=1;" vertex="1" parent="1">
          <mxGeometry x="680" y="280" width="120" height="50" as="geometry" />
        </mxCell>
        <mxCell id="Z3Fsw5AAsz8I-hQZ8LvQ-8" value="Vásárlások megtekintése" style="ellipse;whiteSpace=wrap;html=1;" vertex="1" parent="1">
          <mxGeometry x="680" y="350" width="120" height="50" as="geometry" />
        </mxCell>
        <mxCell id="Z3Fsw5AAsz8I-hQZ8LvQ-9" value="" style="endArrow=none;html=1;rounded=0;exitX=0;exitY=0;exitDx=0;exitDy=0;entryX=0.5;entryY=1;entryDx=0;entryDy=0;entryPerimeter=0;" edge="1" parent="1" source="Z3Fsw5AAsz8I-hQZ8LvQ-7" target="Z3Fsw5AAsz8I-hQZ8LvQ-5">
          <mxGeometry width="50" height="50" relative="1" as="geometry">
            <mxPoint x="650" y="310" as="sourcePoint" />
            <mxPoint x="700" y="260" as="targetPoint" />
          </mxGeometry>
        </mxCell>
        <mxCell id="Z3Fsw5AAsz8I-hQZ8LvQ-11" value="" style="endArrow=none;html=1;rounded=0;entryX=0.108;entryY=1.017;entryDx=0;entryDy=0;entryPerimeter=0;exitX=0;exitY=0.5;exitDx=0;exitDy=0;" edge="1" parent="1" source="Z3Fsw5AAsz8I-hQZ8LvQ-8" target="Z3Fsw5AAsz8I-hQZ8LvQ-5">
          <mxGeometry width="50" height="50" relative="1" as="geometry">
            <mxPoint x="723.2201738274084" y="399.99787112953413" as="sourcePoint" />
            <mxPoint x="490" y="274.75" as="targetPoint" />
          </mxGeometry>
        </mxCell>
        <mxCell id="Z3Fsw5AAsz8I-hQZ8LvQ-13" value="Bejelentkezés" style="ellipse;whiteSpace=wrap;html=1;" vertex="1" parent="1">
          <mxGeometry x="430" y="290" width="120" height="50" as="geometry" />
        </mxCell>
        <mxCell id="Z3Fsw5AAsz8I-hQZ8LvQ-14" value="Regisztráció" style="ellipse;whiteSpace=wrap;html=1;" vertex="1" parent="1">
          <mxGeometry x="440" y="350" width="120" height="50" as="geometry" />
        </mxCell>
        <mxCell id="Z3Fsw5AAsz8I-hQZ8LvQ-15" value="" style="endArrow=none;html=1;rounded=0;exitX=0;exitY=0.5;exitDx=0;exitDy=0;entryX=0.433;entryY=0.983;entryDx=0;entryDy=0;entryPerimeter=0;" edge="1" parent="1" source="Z3Fsw5AAsz8I-hQZ8LvQ-14" target="Z3Fsw5AAsz8I-hQZ8LvQ-2">
          <mxGeometry width="50" height="50" relative="1" as="geometry">
            <mxPoint x="359.99764911752806" y="320.02998250101155" as="sourcePoint" />
            <mxPoint x="367.06" y="260" as="targetPoint" />
          </mxGeometry>
        </mxCell>
        <mxCell id="Z3Fsw5AAsz8I-hQZ8LvQ-16" value="" style="endArrow=none;html=1;rounded=0;exitX=0.808;exitY=1.017;exitDx=0;exitDy=0;exitPerimeter=0;entryX=0.575;entryY=-0.02;entryDx=0;entryDy=0;entryPerimeter=0;" edge="1" parent="1" source="Z3Fsw5AAsz8I-hQZ8LvQ-2" target="Z3Fsw5AAsz8I-hQZ8LvQ-13">
          <mxGeometry width="50" height="50" relative="1" as="geometry">
            <mxPoint x="420" y="280" as="sourcePoint" />
            <mxPoint x="470" y="230" as="targetPoint" />
            <Array as="points">
              <mxPoint x="460" y="280" />
            </Array>
          </mxGeometry>
        </mxCell>
        <mxCell id="Z3Fsw5AAsz8I-hQZ8LvQ-17" value="Tag kezelése" style="ellipse;whiteSpace=wrap;html=1;" vertex="1" parent="1">
          <mxGeometry x="260" y="320" width="120" height="40" as="geometry" />
        </mxCell>
        <mxCell id="Z3Fsw5AAsz8I-hQZ8LvQ-18" value="Megálló kezelése" style="ellipse;whiteSpace=wrap;html=1;" vertex="1" parent="1">
          <mxGeometry x="150" y="480" width="120" height="40" as="geometry" />
        </mxCell>
        <mxCell id="Z3Fsw5AAsz8I-hQZ8LvQ-19" value="Admin kezelése" style="ellipse;whiteSpace=wrap;html=1;" vertex="1" parent="1">
          <mxGeometry x="270" y="270" width="120" height="40" as="geometry" />
        </mxCell>
        <mxCell id="Z3Fsw5AAsz8I-hQZ8LvQ-20" value="Járat kezelése" style="ellipse;whiteSpace=wrap;html=1;" vertex="1" parent="1">
          <mxGeometry x="270" y="370" width="120" height="40" as="geometry" />
        </mxCell>
        <mxCell id="Z3Fsw5AAsz8I-hQZ8LvQ-21" value="Állomás kezelése" style="ellipse;whiteSpace=wrap;html=1;" vertex="1" parent="1">
          <mxGeometry x="270" y="430" width="120" height="40" as="geometry" />
        </mxCell>
        <mxCell id="Z3Fsw5AAsz8I-hQZ8LvQ-22" value="Vásárlás kezelése" style="ellipse;whiteSpace=wrap;html=1;" vertex="1" parent="1">
          <mxGeometry x="70" y="430" width="120" height="40" as="geometry" />
        </mxCell>
        <mxCell id="Z3Fsw5AAsz8I-hQZ8LvQ-23" value="Jegy kezelése" style="ellipse;whiteSpace=wrap;html=1;" vertex="1" parent="1">
          <mxGeometry x="40" y="380" width="120" height="40" as="geometry" />
        </mxCell>
        <mxCell id="Z3Fsw5AAsz8I-hQZ8LvQ-24" value="Kedvezmény kezelése" style="ellipse;whiteSpace=wrap;html=1;" vertex="1" parent="1">
          <mxGeometry x="20" y="330" width="120" height="40" as="geometry" />
        </mxCell>
        <mxCell id="Z3Fsw5AAsz8I-hQZ8LvQ-25" value="Szerelvény kezelése" style="ellipse;whiteSpace=wrap;html=1;" vertex="1" parent="1">
          <mxGeometry y="280" width="120" height="40" as="geometry" />
        </mxCell>
        <mxCell id="Z3Fsw5AAsz8I-hQZ8LvQ-26" value="Statisztika" style="rounded=0;whiteSpace=wrap;html=1;" vertex="1" parent="1">
          <mxGeometry y="200" width="120" height="60" as="geometry" />
        </mxCell>
        <mxCell id="Z3Fsw5AAsz8I-hQZ8LvQ-29" value="" style="endArrow=none;html=1;rounded=0;" edge="1" parent="1">
          <mxGeometry width="50" height="50" relative="1" as="geometry">
            <mxPoint x="80" y="170" as="sourcePoint" />
            <mxPoint x="670" y="170" as="targetPoint" />
          </mxGeometry>
        </mxCell>
        <mxCell id="Z3Fsw5AAsz8I-hQZ8LvQ-30" value="" style="endArrow=none;html=1;rounded=0;entryX=0.5;entryY=1;entryDx=0;entryDy=0;exitX=0.042;exitY=0.325;exitDx=0;exitDy=0;exitPerimeter=0;" edge="1" parent="1" source="Z3Fsw5AAsz8I-hQZ8LvQ-21" target="Z3Fsw5AAsz8I-hQZ8LvQ-3">
          <mxGeometry width="50" height="50" relative="1" as="geometry">
            <mxPoint x="60" y="260" as="sourcePoint" />
            <mxPoint x="110" y="210" as="targetPoint" />
          </mxGeometry>
        </mxCell>
        <mxCell id="Z3Fsw5AAsz8I-hQZ8LvQ-31" value="" style="endArrow=none;html=1;rounded=0;exitX=0.017;exitY=0.35;exitDx=0;exitDy=0;exitPerimeter=0;entryX=0.567;entryY=1.017;entryDx=0;entryDy=0;entryPerimeter=0;" edge="1" parent="1" source="Z3Fsw5AAsz8I-hQZ8LvQ-20" target="Z3Fsw5AAsz8I-hQZ8LvQ-3">
          <mxGeometry width="50" height="50" relative="1" as="geometry">
            <mxPoint x="70" y="270" as="sourcePoint" />
            <mxPoint x="120" y="220" as="targetPoint" />
          </mxGeometry>
        </mxCell>
        <mxCell id="Z3Fsw5AAsz8I-hQZ8LvQ-32" value="" style="endArrow=none;html=1;rounded=0;entryX=0;entryY=0;entryDx=0;entryDy=0;exitX=0.75;exitY=1;exitDx=0;exitDy=0;" edge="1" parent="1" source="Z3Fsw5AAsz8I-hQZ8LvQ-3" target="Z3Fsw5AAsz8I-hQZ8LvQ-17">
          <mxGeometry width="50" height="50" relative="1" as="geometry">
            <mxPoint x="80" y="280" as="sourcePoint" />
            <mxPoint x="130" y="230" as="targetPoint" />
          </mxGeometry>
        </mxCell>
        <mxCell id="Z3Fsw5AAsz8I-hQZ8LvQ-33" value="" style="endArrow=none;html=1;rounded=0;entryX=0.408;entryY=-0.025;entryDx=0;entryDy=0;entryPerimeter=0;exitX=1;exitY=0.75;exitDx=0;exitDy=0;" edge="1" parent="1" source="Z3Fsw5AAsz8I-hQZ8LvQ-3" target="Z3Fsw5AAsz8I-hQZ8LvQ-19">
          <mxGeometry width="50" height="50" relative="1" as="geometry">
            <mxPoint x="90" y="290" as="sourcePoint" />
            <mxPoint x="140" y="240" as="targetPoint" />
          </mxGeometry>
        </mxCell>
        <mxCell id="Z3Fsw5AAsz8I-hQZ8LvQ-34" value="" style="endArrow=none;html=1;rounded=0;entryX=0;entryY=0.75;entryDx=0;entryDy=0;exitX=0.95;exitY=0.325;exitDx=0;exitDy=0;exitPerimeter=0;" edge="1" parent="1" source="Z3Fsw5AAsz8I-hQZ8LvQ-25" target="Z3Fsw5AAsz8I-hQZ8LvQ-3">
          <mxGeometry width="50" height="50" relative="1" as="geometry">
            <mxPoint x="110" y="290" as="sourcePoint" />
            <mxPoint x="150" y="250" as="targetPoint" />
          </mxGeometry>
        </mxCell>
        <mxCell id="Z3Fsw5AAsz8I-hQZ8LvQ-35" value="" style="endArrow=none;html=1;rounded=0;exitX=0.975;exitY=0.325;exitDx=0;exitDy=0;exitPerimeter=0;entryX=0.125;entryY=0.967;entryDx=0;entryDy=0;entryPerimeter=0;" edge="1" parent="1" source="Z3Fsw5AAsz8I-hQZ8LvQ-23" target="Z3Fsw5AAsz8I-hQZ8LvQ-3">
          <mxGeometry width="50" height="50" relative="1" as="geometry">
            <mxPoint x="110" y="310" as="sourcePoint" />
            <mxPoint x="160" y="260" as="targetPoint" />
          </mxGeometry>
        </mxCell>
        <mxCell id="Z3Fsw5AAsz8I-hQZ8LvQ-36" value="" style="endArrow=none;html=1;rounded=0;entryX=0.308;entryY=0.95;entryDx=0;entryDy=0;entryPerimeter=0;exitX=0.942;exitY=0.275;exitDx=0;exitDy=0;exitPerimeter=0;" edge="1" parent="1" source="Z3Fsw5AAsz8I-hQZ8LvQ-22" target="Z3Fsw5AAsz8I-hQZ8LvQ-3">
          <mxGeometry width="50" height="50" relative="1" as="geometry">
            <mxPoint x="120" y="320" as="sourcePoint" />
            <mxPoint x="170" y="270" as="targetPoint" />
          </mxGeometry>
        </mxCell>
        <mxCell id="Z3Fsw5AAsz8I-hQZ8LvQ-37" value="" style="endArrow=none;html=1;rounded=0;exitX=0.5;exitY=0;exitDx=0;exitDy=0;entryX=0.417;entryY=0.95;entryDx=0;entryDy=0;entryPerimeter=0;" edge="1" parent="1" source="Z3Fsw5AAsz8I-hQZ8LvQ-18" target="Z3Fsw5AAsz8I-hQZ8LvQ-3">
          <mxGeometry width="50" height="50" relative="1" as="geometry">
            <mxPoint x="180" y="340" as="sourcePoint" />
            <mxPoint x="200" y="270" as="targetPoint" />
          </mxGeometry>
        </mxCell>
        <mxCell id="Z3Fsw5AAsz8I-hQZ8LvQ-38" value="" style="endArrow=none;html=1;rounded=0;exitX=0.683;exitY=0.05;exitDx=0;exitDy=0;exitPerimeter=0;" edge="1" parent="1" source="Z3Fsw5AAsz8I-hQZ8LvQ-26">
          <mxGeometry width="50" height="50" relative="1" as="geometry">
            <mxPoint x="420" y="280" as="sourcePoint" />
            <mxPoint x="80" y="170" as="targetPoint" />
          </mxGeometry>
        </mxCell>
        <mxCell id="Z3Fsw5AAsz8I-hQZ8LvQ-39" value="" style="endArrow=none;html=1;rounded=0;exitX=0.592;exitY=0.033;exitDx=0;exitDy=0;exitPerimeter=0;" edge="1" parent="1" source="Z3Fsw5AAsz8I-hQZ8LvQ-2">
          <mxGeometry width="50" height="50" relative="1" as="geometry">
            <mxPoint x="430" y="290" as="sourcePoint" />
            <mxPoint x="400" y="170" as="targetPoint" />
          </mxGeometry>
        </mxCell>
        <mxCell id="Z3Fsw5AAsz8I-hQZ8LvQ-40" value="" style="endArrow=none;html=1;rounded=0;exitX=0.317;exitY=0.017;exitDx=0;exitDy=0;exitPerimeter=0;" edge="1" parent="1" source="Z3Fsw5AAsz8I-hQZ8LvQ-4">
          <mxGeometry width="50" height="50" relative="1" as="geometry">
            <mxPoint x="440" y="300" as="sourcePoint" />
            <mxPoint x="520" y="170" as="targetPoint" />
          </mxGeometry>
        </mxCell>
        <mxCell id="Z3Fsw5AAsz8I-hQZ8LvQ-41" value="" style="endArrow=none;html=1;rounded=0;exitX=0.333;exitY=0.033;exitDx=0;exitDy=0;exitPerimeter=0;" edge="1" parent="1" source="Z3Fsw5AAsz8I-hQZ8LvQ-5">
          <mxGeometry width="50" height="50" relative="1" as="geometry">
            <mxPoint x="450" y="310" as="sourcePoint" />
            <mxPoint x="670" y="170" as="targetPoint" />
          </mxGeometry>
        </mxCell>
        <mxCell id="Z3Fsw5AAsz8I-hQZ8LvQ-42" value="" style="endArrow=none;html=1;rounded=0;entryX=0.608;entryY=0.983;entryDx=0;entryDy=0;entryPerimeter=0;" edge="1" parent="1" target="Z3Fsw5AAsz8I-hQZ8LvQ-1">
          <mxGeometry width="50" height="50" relative="1" as="geometry">
            <mxPoint x="453" y="170" as="sourcePoint" />
            <mxPoint x="510" y="270" as="targetPoint" />
          </mxGeometry>
        </mxCell>
        <mxCell id="Z3Fsw5AAsz8I-hQZ8LvQ-43" value="" style="endArrow=none;html=1;rounded=0;exitX=0.75;exitY=0;exitDx=0;exitDy=0;" edge="1" parent="1" source="Z3Fsw5AAsz8I-hQZ8LvQ-3">
          <mxGeometry width="50" height="50" relative="1" as="geometry">
            <mxPoint x="400" y="190" as="sourcePoint" />
            <mxPoint x="240" y="170" as="targetPoint" />
          </mxGeometry>
        </mxCell>
      </root>
    </mxGraphModel>
  </diagram>
  <diagram id="184j-hiPH05unu_dZ2nH" name="2 oldal">
    <mxGraphModel dx="814" dy="478" grid="1" gridSize="10" guides="1" tooltips="1" connect="1" arrows="1" fold="1" page="1" pageScale="1" pageWidth="827" pageHeight="1169" math="0" shadow="0">
      <root>
        <mxCell id="0" />
        <mxCell id="1" parent="0" />
        <UserObject label="Kezdőlap" treeRoot="1" id="wm425UBbXQububmyRuFp-10">
          <mxCell style="whiteSpace=wrap;html=1;align=center;treeFolding=1;treeMoving=1;newEdgeStyle={&quot;edgeStyle&quot;:&quot;elbowEdgeStyle&quot;,&quot;startArrow&quot;:&quot;none&quot;,&quot;endArrow&quot;:&quot;none&quot;};" vertex="1" parent="1">
            <mxGeometry x="354" y="110" width="120" height="60" as="geometry" />
          </mxCell>
        </UserObject>
        <mxCell id="wm425UBbXQububmyRuFp-11" value="Utvonalkeresés" style="whiteSpace=wrap;html=1;align=center;verticalAlign=middle;treeFolding=1;treeMoving=1;newEdgeStyle={&quot;edgeStyle&quot;:&quot;elbowEdgeStyle&quot;,&quot;startArrow&quot;:&quot;none&quot;,&quot;endArrow&quot;:&quot;none&quot;};" vertex="1" parent="1">
          <mxGeometry x="530" y="230" width="100" height="60" as="geometry" />
        </mxCell>
        <mxCell id="wm425UBbXQububmyRuFp-12" value="" style="edgeStyle=elbowEdgeStyle;elbow=vertical;sourcePerimeterSpacing=0;targetPerimeterSpacing=0;startArrow=none;endArrow=none;rounded=0;curved=0;" edge="1" target="wm425UBbXQububmyRuFp-11" parent="1">
          <mxGeometry relative="1" as="geometry">
            <mxPoint x="414" y="170" as="sourcePoint" />
          </mxGeometry>
        </mxCell>
        <mxCell id="wm425UBbXQububmyRuFp-13" value="Bejelentkezés/regisztráció" style="whiteSpace=wrap;html=1;align=center;verticalAlign=middle;treeFolding=1;treeMoving=1;newEdgeStyle={&quot;edgeStyle&quot;:&quot;elbowEdgeStyle&quot;,&quot;startArrow&quot;:&quot;none&quot;,&quot;endArrow&quot;:&quot;none&quot;};" vertex="1" parent="1">
          <mxGeometry x="364" y="230" width="100" height="60" as="geometry" />
        </mxCell>
        <mxCell id="wm425UBbXQububmyRuFp-14" value="" style="edgeStyle=elbowEdgeStyle;elbow=vertical;sourcePerimeterSpacing=0;targetPerimeterSpacing=0;startArrow=none;endArrow=none;rounded=0;curved=0;exitX=0.5;exitY=1;exitDx=0;exitDy=0;" edge="1" target="wm425UBbXQububmyRuFp-13" parent="1" source="wm425UBbXQububmyRuFp-10">
          <mxGeometry relative="1" as="geometry">
            <mxPoint x="414" y="190" as="sourcePoint" />
          </mxGeometry>
        </mxCell>
        <mxCell id="wm425UBbXQububmyRuFp-15" value="Admin felület" style="whiteSpace=wrap;html=1;align=center;verticalAlign=middle;treeFolding=1;treeMoving=1;newEdgeStyle={&quot;edgeStyle&quot;:&quot;elbowEdgeStyle&quot;,&quot;startArrow&quot;:&quot;none&quot;,&quot;endArrow&quot;:&quot;none&quot;};" vertex="1" parent="1">
          <mxGeometry x="210" y="230" width="100" height="60" as="geometry" />
        </mxCell>
        <mxCell id="wm425UBbXQububmyRuFp-16" value="" style="edgeStyle=elbowEdgeStyle;elbow=vertical;sourcePerimeterSpacing=0;targetPerimeterSpacing=0;startArrow=none;endArrow=none;rounded=0;curved=0;exitX=0.5;exitY=1;exitDx=0;exitDy=0;" edge="1" target="wm425UBbXQububmyRuFp-15" parent="1" source="wm425UBbXQububmyRuFp-10">
          <mxGeometry relative="1" as="geometry">
            <mxPoint x="210" y="190" as="sourcePoint" />
          </mxGeometry>
        </mxCell>
        <mxCell id="wm425UBbXQububmyRuFp-17" value="Vonatok kezelése" style="whiteSpace=wrap;html=1;rounded=1;arcSize=50;align=center;verticalAlign=middle;strokeWidth=1;autosize=1;spacing=4;treeFolding=1;treeMoving=1;newEdgeStyle={&quot;edgeStyle&quot;:&quot;entityRelationEdgeStyle&quot;,&quot;startArrow&quot;:&quot;none&quot;,&quot;endArrow&quot;:&quot;none&quot;,&quot;segment&quot;:10,&quot;curved&quot;:1,&quot;sourcePerimeterSpacing&quot;:0,&quot;targetPerimeterSpacing&quot;:0};" vertex="1" parent="1">
          <mxGeometry x="100" y="360" width="140" height="30" as="geometry" />
        </mxCell>
        <mxCell id="wm425UBbXQububmyRuFp-18" value="" style="edgeStyle=entityRelationEdgeStyle;startArrow=none;endArrow=none;segment=10;curved=1;sourcePerimeterSpacing=0;targetPerimeterSpacing=0;rounded=0;exitX=0.5;exitY=1;exitDx=0;exitDy=0;" edge="1" target="wm425UBbXQububmyRuFp-17" parent="1" source="wm425UBbXQububmyRuFp-15">
          <mxGeometry relative="1" as="geometry">
            <mxPoint x="210" y="310" as="sourcePoint" />
          </mxGeometry>
        </mxCell>
        <mxCell id="wm425UBbXQububmyRuFp-19" value="Állomások kezelése" style="whiteSpace=wrap;html=1;rounded=1;arcSize=50;align=center;verticalAlign=middle;strokeWidth=1;autosize=1;spacing=4;treeFolding=1;treeMoving=1;newEdgeStyle={&quot;edgeStyle&quot;:&quot;entityRelationEdgeStyle&quot;,&quot;startArrow&quot;:&quot;none&quot;,&quot;endArrow&quot;:&quot;none&quot;,&quot;segment&quot;:10,&quot;curved&quot;:1,&quot;sourcePerimeterSpacing&quot;:0,&quot;targetPerimeterSpacing&quot;:0};" vertex="1" parent="1">
          <mxGeometry x="110" y="400" width="150" height="30" as="geometry" />
        </mxCell>
        <mxCell id="wm425UBbXQububmyRuFp-20" value="" style="edgeStyle=entityRelationEdgeStyle;startArrow=none;endArrow=none;segment=10;curved=1;sourcePerimeterSpacing=0;targetPerimeterSpacing=0;rounded=0;exitX=0.5;exitY=1;exitDx=0;exitDy=0;" edge="1" target="wm425UBbXQububmyRuFp-19" parent="1" source="wm425UBbXQububmyRuFp-15">
          <mxGeometry relative="1" as="geometry">
            <mxPoint x="150" y="450" as="sourcePoint" />
          </mxGeometry>
        </mxCell>
        <mxCell id="wm425UBbXQububmyRuFp-23" value="Menetrend megtekintése" style="whiteSpace=wrap;html=1;rounded=1;arcSize=50;align=center;verticalAlign=middle;strokeWidth=1;autosize=1;spacing=4;treeFolding=1;treeMoving=1;newEdgeStyle={&quot;edgeStyle&quot;:&quot;entityRelationEdgeStyle&quot;,&quot;startArrow&quot;:&quot;none&quot;,&quot;endArrow&quot;:&quot;none&quot;,&quot;segment&quot;:10,&quot;curved&quot;:1,&quot;sourcePerimeterSpacing&quot;:0,&quot;targetPerimeterSpacing&quot;:0};" vertex="1" parent="1">
          <mxGeometry x="400" y="430" width="180" height="30" as="geometry" />
        </mxCell>
        <mxCell id="wm425UBbXQububmyRuFp-24" value="" style="edgeStyle=entityRelationEdgeStyle;startArrow=none;endArrow=none;segment=10;curved=1;sourcePerimeterSpacing=0;targetPerimeterSpacing=0;rounded=0;exitX=0.5;exitY=1;exitDx=0;exitDy=0;" edge="1" target="wm425UBbXQububmyRuFp-23" parent="1" source="wm425UBbXQububmyRuFp-11">
          <mxGeometry relative="1" as="geometry">
            <mxPoint x="590" y="350" as="sourcePoint" />
          </mxGeometry>
        </mxCell>
        <mxCell id="wm425UBbXQububmyRuFp-25" value="Állomás megtekintése" style="whiteSpace=wrap;html=1;rounded=1;arcSize=50;align=center;verticalAlign=middle;strokeWidth=1;autosize=1;spacing=4;treeFolding=1;treeMoving=1;newEdgeStyle={&quot;edgeStyle&quot;:&quot;entityRelationEdgeStyle&quot;,&quot;startArrow&quot;:&quot;none&quot;,&quot;endArrow&quot;:&quot;none&quot;,&quot;segment&quot;:10,&quot;curved&quot;:1,&quot;sourcePerimeterSpacing&quot;:0,&quot;targetPerimeterSpacing&quot;:0};" vertex="1" parent="1">
          <mxGeometry x="400" y="380" width="160" height="30" as="geometry" />
        </mxCell>
        <mxCell id="wm425UBbXQububmyRuFp-26" value="" style="edgeStyle=entityRelationEdgeStyle;startArrow=none;endArrow=none;segment=10;curved=1;sourcePerimeterSpacing=0;targetPerimeterSpacing=0;rounded=0;exitX=0.5;exitY=1;exitDx=0;exitDy=0;" edge="1" target="wm425UBbXQububmyRuFp-25" parent="1" source="wm425UBbXQububmyRuFp-11">
          <mxGeometry relative="1" as="geometry">
            <mxPoint x="420" y="436" as="sourcePoint" />
          </mxGeometry>
        </mxCell>
        <mxCell id="wm425UBbXQububmyRuFp-27" value="Jegy váltása" style="whiteSpace=wrap;html=1;rounded=1;arcSize=50;align=center;verticalAlign=middle;strokeWidth=1;autosize=1;spacing=4;treeFolding=1;treeMoving=1;newEdgeStyle={&quot;edgeStyle&quot;:&quot;entityRelationEdgeStyle&quot;,&quot;startArrow&quot;:&quot;none&quot;,&quot;endArrow&quot;:&quot;none&quot;,&quot;segment&quot;:10,&quot;curved&quot;:1,&quot;sourcePerimeterSpacing&quot;:0,&quot;targetPerimeterSpacing&quot;:0};" vertex="1" parent="1">
          <mxGeometry x="630" y="420" width="110" height="30" as="geometry" />
        </mxCell>
        <mxCell id="wm425UBbXQububmyRuFp-28" value="" style="edgeStyle=entityRelationEdgeStyle;startArrow=none;endArrow=none;segment=10;curved=1;sourcePerimeterSpacing=0;targetPerimeterSpacing=0;rounded=0;exitX=0.5;exitY=1;exitDx=0;exitDy=0;" edge="1" target="wm425UBbXQububmyRuFp-27" parent="1" source="wm425UBbXQububmyRuFp-11">
          <mxGeometry relative="1" as="geometry">
            <mxPoint x="650" y="402" as="sourcePoint" />
          </mxGeometry>
        </mxCell>
        <mxCell id="wm425UBbXQububmyRuFp-29" value="Statisztika elkészítése" style="whiteSpace=wrap;html=1;rounded=1;arcSize=50;align=center;verticalAlign=middle;strokeWidth=1;autosize=1;spacing=4;treeFolding=1;treeMoving=1;newEdgeStyle={&quot;edgeStyle&quot;:&quot;entityRelationEdgeStyle&quot;,&quot;startArrow&quot;:&quot;none&quot;,&quot;endArrow&quot;:&quot;none&quot;,&quot;segment&quot;:10,&quot;curved&quot;:1,&quot;sourcePerimeterSpacing&quot;:0,&quot;targetPerimeterSpacing&quot;:0};" vertex="1" parent="1">
          <mxGeometry x="120" y="440" width="160" height="30" as="geometry" />
        </mxCell>
        <mxCell id="wm425UBbXQububmyRuFp-30" value="" style="edgeStyle=entityRelationEdgeStyle;startArrow=none;endArrow=none;segment=10;curved=1;sourcePerimeterSpacing=0;targetPerimeterSpacing=0;rounded=0;exitX=0.5;exitY=1;exitDx=0;exitDy=0;" edge="1" target="wm425UBbXQububmyRuFp-29" parent="1" source="wm425UBbXQububmyRuFp-15">
          <mxGeometry relative="1" as="geometry">
            <mxPoint x="280" y="310" as="sourcePoint" />
            <Array as="points">
              <mxPoint x="350" y="430" />
            </Array>
          </mxGeometry>
        </mxCell>
        <mxCell id="wm425UBbXQububmyRuFp-31" value="Profiloldal" style="whiteSpace=wrap;html=1;align=center;verticalAlign=middle;treeFolding=1;treeMoving=1;newEdgeStyle={&quot;edgeStyle&quot;:&quot;elbowEdgeStyle&quot;,&quot;startArrow&quot;:&quot;none&quot;,&quot;endArrow&quot;:&quot;none&quot;};" vertex="1" parent="1">
          <mxGeometry x="670" y="230" width="100" height="60" as="geometry" />
        </mxCell>
        <mxCell id="wm425UBbXQububmyRuFp-32" value="" style="edgeStyle=elbowEdgeStyle;elbow=vertical;sourcePerimeterSpacing=0;targetPerimeterSpacing=0;startArrow=none;endArrow=none;rounded=0;curved=0;exitX=0.5;exitY=1;exitDx=0;exitDy=0;" edge="1" target="wm425UBbXQububmyRuFp-31" parent="1" source="wm425UBbXQububmyRuFp-10">
          <mxGeometry relative="1" as="geometry">
            <mxPoint x="650" y="190" as="sourcePoint" />
          </mxGeometry>
        </mxCell>
        <mxCell id="wm425UBbXQububmyRuFp-33" value="&lt;div&gt;Korábbi saját&lt;/div&gt;&lt;div&gt;jegyek megtekintése&lt;/div&gt;" style="whiteSpace=wrap;html=1;rounded=1;arcSize=50;align=center;verticalAlign=middle;strokeWidth=1;autosize=1;spacing=4;treeFolding=1;treeMoving=1;newEdgeStyle={&quot;edgeStyle&quot;:&quot;entityRelationEdgeStyle&quot;,&quot;startArrow&quot;:&quot;none&quot;,&quot;endArrow&quot;:&quot;none&quot;,&quot;segment&quot;:10,&quot;curved&quot;:1,&quot;sourcePerimeterSpacing&quot;:0,&quot;targetPerimeterSpacing&quot;:0};" vertex="1" parent="1">
          <mxGeometry x="660" y="310" width="150" height="50" as="geometry" />
        </mxCell>
        <mxCell id="wm425UBbXQububmyRuFp-34" value="" style="edgeStyle=entityRelationEdgeStyle;startArrow=none;endArrow=none;segment=10;curved=1;sourcePerimeterSpacing=0;targetPerimeterSpacing=0;rounded=0;exitX=0.5;exitY=1;exitDx=0;exitDy=0;" edge="1" target="wm425UBbXQububmyRuFp-33" parent="1" source="wm425UBbXQububmyRuFp-31">
          <mxGeometry relative="1" as="geometry">
            <mxPoint x="670" y="352" as="sourcePoint" />
          </mxGeometry>
        </mxCell>
        <mxCell id="wm425UBbXQububmyRuFp-35" value="&lt;div&gt;Új vonat&lt;/div&gt;" style="whiteSpace=wrap;html=1;rounded=1;arcSize=50;align=center;verticalAlign=middle;strokeWidth=1;autosize=1;spacing=4;treeFolding=1;treeMoving=1;newEdgeStyle={&quot;edgeStyle&quot;:&quot;entityRelationEdgeStyle&quot;,&quot;startArrow&quot;:&quot;none&quot;,&quot;endArrow&quot;:&quot;none&quot;,&quot;segment&quot;:10,&quot;curved&quot;:1,&quot;sourcePerimeterSpacing&quot;:0,&quot;targetPerimeterSpacing&quot;:0};" vertex="1" parent="1">
          <mxGeometry x="100" y="320" width="90" height="30" as="geometry" />
        </mxCell>
        <mxCell id="wm425UBbXQububmyRuFp-36" value="" style="edgeStyle=entityRelationEdgeStyle;startArrow=none;endArrow=none;segment=10;curved=1;sourcePerimeterSpacing=0;targetPerimeterSpacing=0;rounded=0;exitX=0;exitY=1;exitDx=0;exitDy=0;" edge="1" target="wm425UBbXQububmyRuFp-35" parent="1" source="wm425UBbXQububmyRuFp-15">
          <mxGeometry relative="1" as="geometry">
            <mxPoint x="260" y="290" as="sourcePoint" />
          </mxGeometry>
        </mxCell>
        <mxCell id="wm425UBbXQububmyRuFp-37" value="Új állomás" style="whiteSpace=wrap;html=1;rounded=1;arcSize=50;align=center;verticalAlign=middle;strokeWidth=1;autosize=1;spacing=4;treeFolding=1;treeMoving=1;newEdgeStyle={&quot;edgeStyle&quot;:&quot;entityRelationEdgeStyle&quot;,&quot;startArrow&quot;:&quot;none&quot;,&quot;endArrow&quot;:&quot;none&quot;,&quot;segment&quot;:10,&quot;curved&quot;:1,&quot;sourcePerimeterSpacing&quot;:0,&quot;targetPerimeterSpacing&quot;:0};" vertex="1" parent="1">
          <mxGeometry x="70" y="278" width="100" height="30" as="geometry" />
        </mxCell>
        <mxCell id="wm425UBbXQububmyRuFp-38" value="" style="edgeStyle=entityRelationEdgeStyle;startArrow=none;endArrow=none;segment=10;curved=1;sourcePerimeterSpacing=0;targetPerimeterSpacing=0;rounded=0;exitX=0;exitY=0.5;exitDx=0;exitDy=0;" edge="1" target="wm425UBbXQububmyRuFp-37" parent="1" source="wm425UBbXQububmyRuFp-15">
          <mxGeometry relative="1" as="geometry">
            <mxPoint x="40" y="320" as="sourcePoint" />
          </mxGeometry>
        </mxCell>
      </root>
    </mxGraphModel>
  </diagram>
</mxfile>
